%TF.GenerationSoftware,KiCad,Pcbnew,9.0.9-9.0.9~ubuntu24.04.1*%
%TF.CreationDate,2026-10-09T16:26:58+00:00*%
%TF.ProjectId,disctracker_sensor,64697363-7472-4616-936b-65725f73656e,rev?*%
%TF.SameCoordinates,Original*%
%TF.FileFunction,Legend,Top*%
%TF.FilePolarity,Positive*%
%FSLAX46Y46*%
G04 Gerber Fmt 4.6, Leading zero omitted, Abs format (unit mm)*
G04 Created by KiCad (PCBNEW 9.0.9-9.0.9~ubuntu24.04.1) date 2026-10-09 16:26:58*
%MOMM*%
%LPD*%
G01*
G04 APERTURE LIST*
G04 Aperture macros list*
%AMRoundRect*
0 Rectangle with rounded corners*
0 $1 Rounding radius*
0 $2 $3 $4 $5 $6 $7 $8 $9 X,Y pos of 4 corners*
0 Add a 4 corners polygon primitive as box body*
4,1,4,$2,$3,$4,$5,$6,$7,$8,$9,$2,$3,0*
0 Add four circle primitives for the rounded corners*
1,1,$1+$1,$2,$3*
1,1,$1+$1,$4,$5*
1,1,$1+$1,$6,$7*
1,1,$1+$1,$8,$9*
0 Add four rect primitives between the rounded corners*
20,1,$1+$1,$2,$3,$4,$5,0*
20,1,$1+$1,$4,$5,$6,$7,0*
20,1,$1+$1,$6,$7,$8,$9,0*
20,1,$1+$1,$8,$9,$2,$3,0*%
%AMFreePoly0*
4,1,23,0.550000,-0.750000,0.000000,-0.750000,0.000000,-0.745722,-0.065263,-0.745722,-0.191342,-0.711940,-0.304381,-0.646677,-0.396677,-0.554381,-0.461940,-0.441342,-0.495722,-0.315263,-0.495722,-0.250000,-0.500000,-0.250000,-0.500000,0.250000,-0.495722,0.250000,-0.495722,0.315263,-0.461940,0.441342,-0.396677,0.554381,-0.304381,0.646677,-0.191342,0.711940,-0.065263,0.745722,0.000000,0.745722,
0.000000,0.750000,0.550000,0.750000,0.550000,-0.750000,0.550000,-0.750000,$1*%
%AMFreePoly1*
4,1,23,0.000000,0.745722,0.065263,0.745722,0.191342,0.711940,0.304381,0.646677,0.396677,0.554381,0.461940,0.441342,0.495722,0.315263,0.495722,0.250000,0.500000,0.250000,0.500000,-0.250000,0.495722,-0.250000,0.495722,-0.315263,0.461940,-0.441342,0.396677,-0.554381,0.304381,-0.646677,0.191342,-0.711940,0.065263,-0.745722,0.000000,-0.745722,0.000000,-0.750000,-0.550000,-0.750000,
-0.550000,0.750000,0.000000,0.750000,0.000000,0.745722,0.000000,0.745722,$1*%
G04 Aperture macros list end*
%ADD10C,0.200000*%
%ADD11C,0.120000*%
%ADD12C,0.150000*%
%ADD13RoundRect,0.135000X-0.135000X-0.185000X0.135000X-0.185000X0.135000X0.185000X-0.135000X0.185000X0*%
%ADD14RoundRect,0.087500X-0.225000X-0.087500X0.225000X-0.087500X0.225000X0.087500X-0.225000X0.087500X0*%
%ADD15RoundRect,0.087500X-0.087500X-0.225000X0.087500X-0.225000X0.087500X0.225000X-0.087500X0.225000X0*%
%ADD16RoundRect,0.135000X0.185000X-0.135000X0.185000X0.135000X-0.185000X0.135000X-0.185000X-0.135000X0*%
%ADD17RoundRect,0.140000X-0.140000X-0.170000X0.140000X-0.170000X0.140000X0.170000X-0.140000X0.170000X0*%
%ADD18RoundRect,0.140000X0.170000X-0.140000X0.170000X0.140000X-0.170000X0.140000X-0.170000X-0.140000X0*%
%ADD19C,2.100000*%
%ADD20FreePoly0,0.000000*%
%ADD21R,1.000000X1.500000*%
%ADD22FreePoly1,0.000000*%
%ADD23C,0.250000*%
%ADD24RoundRect,0.275000X-0.275000X0.975000X-0.275000X-0.975000X0.275000X-0.975000X0.275000X0.975000X0*%
G04 APERTURE END LIST*
D10*
X73400000Y-100000000D02*
X72600000Y-100000000D01*
X100000000Y-73400000D02*
X100000000Y-72600000D01*
X100000000Y-126600000D02*
X100000000Y-127400000D01*
D11*
X79314285Y-96535283D02*
X79695238Y-96535283D01*
X79238095Y-96763855D02*
X79504762Y-95963855D01*
X79504762Y-95963855D02*
X79771428Y-96763855D01*
X80038095Y-96459093D02*
X80647619Y-96459093D01*
X95161904Y-119944807D02*
X95276190Y-119982902D01*
X95276190Y-119982902D02*
X95314285Y-120020998D01*
X95314285Y-120020998D02*
X95352381Y-120097188D01*
X95352381Y-120097188D02*
X95352381Y-120211474D01*
X95352381Y-120211474D02*
X95314285Y-120287664D01*
X95314285Y-120287664D02*
X95276190Y-120325760D01*
X95276190Y-120325760D02*
X95200000Y-120363855D01*
X95200000Y-120363855D02*
X94895238Y-120363855D01*
X94895238Y-120363855D02*
X94895238Y-119563855D01*
X94895238Y-119563855D02*
X95161904Y-119563855D01*
X95161904Y-119563855D02*
X95238095Y-119601950D01*
X95238095Y-119601950D02*
X95276190Y-119640045D01*
X95276190Y-119640045D02*
X95314285Y-119716236D01*
X95314285Y-119716236D02*
X95314285Y-119792426D01*
X95314285Y-119792426D02*
X95276190Y-119868617D01*
X95276190Y-119868617D02*
X95238095Y-119906712D01*
X95238095Y-119906712D02*
X95161904Y-119944807D01*
X95161904Y-119944807D02*
X94895238Y-119944807D01*
X95695238Y-120059093D02*
X96304762Y-120059093D01*
X103161904Y-79944807D02*
X103276190Y-79982902D01*
X103276190Y-79982902D02*
X103314285Y-80020998D01*
X103314285Y-80020998D02*
X103352381Y-80097188D01*
X103352381Y-80097188D02*
X103352381Y-80211474D01*
X103352381Y-80211474D02*
X103314285Y-80287664D01*
X103314285Y-80287664D02*
X103276190Y-80325760D01*
X103276190Y-80325760D02*
X103200000Y-80363855D01*
X103200000Y-80363855D02*
X102895238Y-80363855D01*
X102895238Y-80363855D02*
X102895238Y-79563855D01*
X102895238Y-79563855D02*
X103161904Y-79563855D01*
X103161904Y-79563855D02*
X103238095Y-79601950D01*
X103238095Y-79601950D02*
X103276190Y-79640045D01*
X103276190Y-79640045D02*
X103314285Y-79716236D01*
X103314285Y-79716236D02*
X103314285Y-79792426D01*
X103314285Y-79792426D02*
X103276190Y-79868617D01*
X103276190Y-79868617D02*
X103238095Y-79906712D01*
X103238095Y-79906712D02*
X103161904Y-79944807D01*
X103161904Y-79944807D02*
X102895238Y-79944807D01*
X103695238Y-80059093D02*
X104304762Y-80059093D01*
X104000000Y-80363855D02*
X104000000Y-79754331D01*
X119314285Y-96535283D02*
X119695238Y-96535283D01*
X119238095Y-96763855D02*
X119504762Y-95963855D01*
X119504762Y-95963855D02*
X119771428Y-96763855D01*
X120038095Y-96459093D02*
X120647619Y-96459093D01*
X120342857Y-96763855D02*
X120342857Y-96154331D01*
D12*
X84380952Y-108954819D02*
X84380952Y-107954819D01*
X84380952Y-107954819D02*
X84619047Y-107954819D01*
X84619047Y-107954819D02*
X84761904Y-108002438D01*
X84761904Y-108002438D02*
X84857142Y-108097676D01*
X84857142Y-108097676D02*
X84904761Y-108192914D01*
X84904761Y-108192914D02*
X84952380Y-108383390D01*
X84952380Y-108383390D02*
X84952380Y-108526247D01*
X84952380Y-108526247D02*
X84904761Y-108716723D01*
X84904761Y-108716723D02*
X84857142Y-108811961D01*
X84857142Y-108811961D02*
X84761904Y-108907200D01*
X84761904Y-108907200D02*
X84619047Y-108954819D01*
X84619047Y-108954819D02*
X84380952Y-108954819D01*
X85380952Y-108954819D02*
X85380952Y-108288152D01*
X85380952Y-107954819D02*
X85333333Y-108002438D01*
X85333333Y-108002438D02*
X85380952Y-108050057D01*
X85380952Y-108050057D02*
X85428571Y-108002438D01*
X85428571Y-108002438D02*
X85380952Y-107954819D01*
X85380952Y-107954819D02*
X85380952Y-108050057D01*
X85809523Y-108907200D02*
X85904761Y-108954819D01*
X85904761Y-108954819D02*
X86095237Y-108954819D01*
X86095237Y-108954819D02*
X86190475Y-108907200D01*
X86190475Y-108907200D02*
X86238094Y-108811961D01*
X86238094Y-108811961D02*
X86238094Y-108764342D01*
X86238094Y-108764342D02*
X86190475Y-108669104D01*
X86190475Y-108669104D02*
X86095237Y-108621485D01*
X86095237Y-108621485D02*
X85952380Y-108621485D01*
X85952380Y-108621485D02*
X85857142Y-108573866D01*
X85857142Y-108573866D02*
X85809523Y-108478628D01*
X85809523Y-108478628D02*
X85809523Y-108431009D01*
X85809523Y-108431009D02*
X85857142Y-108335771D01*
X85857142Y-108335771D02*
X85952380Y-108288152D01*
X85952380Y-108288152D02*
X86095237Y-108288152D01*
X86095237Y-108288152D02*
X86190475Y-108335771D01*
X87095237Y-108907200D02*
X86999999Y-108954819D01*
X86999999Y-108954819D02*
X86809523Y-108954819D01*
X86809523Y-108954819D02*
X86714285Y-108907200D01*
X86714285Y-108907200D02*
X86666666Y-108859580D01*
X86666666Y-108859580D02*
X86619047Y-108764342D01*
X86619047Y-108764342D02*
X86619047Y-108478628D01*
X86619047Y-108478628D02*
X86666666Y-108383390D01*
X86666666Y-108383390D02*
X86714285Y-108335771D01*
X86714285Y-108335771D02*
X86809523Y-108288152D01*
X86809523Y-108288152D02*
X86999999Y-108288152D01*
X86999999Y-108288152D02*
X87095237Y-108335771D01*
X87380952Y-107954819D02*
X87952380Y-107954819D01*
X87666666Y-108954819D02*
X87666666Y-107954819D01*
X88285714Y-108954819D02*
X88285714Y-108288152D01*
X88285714Y-108478628D02*
X88333333Y-108383390D01*
X88333333Y-108383390D02*
X88380952Y-108335771D01*
X88380952Y-108335771D02*
X88476190Y-108288152D01*
X88476190Y-108288152D02*
X88571428Y-108288152D01*
X89333333Y-108954819D02*
X89333333Y-108431009D01*
X89333333Y-108431009D02*
X89285714Y-108335771D01*
X89285714Y-108335771D02*
X89190476Y-108288152D01*
X89190476Y-108288152D02*
X89000000Y-108288152D01*
X89000000Y-108288152D02*
X88904762Y-108335771D01*
X89333333Y-108907200D02*
X89238095Y-108954819D01*
X89238095Y-108954819D02*
X89000000Y-108954819D01*
X89000000Y-108954819D02*
X88904762Y-108907200D01*
X88904762Y-108907200D02*
X88857143Y-108811961D01*
X88857143Y-108811961D02*
X88857143Y-108716723D01*
X88857143Y-108716723D02*
X88904762Y-108621485D01*
X88904762Y-108621485D02*
X89000000Y-108573866D01*
X89000000Y-108573866D02*
X89238095Y-108573866D01*
X89238095Y-108573866D02*
X89333333Y-108526247D01*
X90238095Y-108907200D02*
X90142857Y-108954819D01*
X90142857Y-108954819D02*
X89952381Y-108954819D01*
X89952381Y-108954819D02*
X89857143Y-108907200D01*
X89857143Y-108907200D02*
X89809524Y-108859580D01*
X89809524Y-108859580D02*
X89761905Y-108764342D01*
X89761905Y-108764342D02*
X89761905Y-108478628D01*
X89761905Y-108478628D02*
X89809524Y-108383390D01*
X89809524Y-108383390D02*
X89857143Y-108335771D01*
X89857143Y-108335771D02*
X89952381Y-108288152D01*
X89952381Y-108288152D02*
X90142857Y-108288152D01*
X90142857Y-108288152D02*
X90238095Y-108335771D01*
X90666667Y-108954819D02*
X90666667Y-107954819D01*
X90761905Y-108573866D02*
X91047619Y-108954819D01*
X91047619Y-108288152D02*
X90666667Y-108669104D01*
X91857143Y-108907200D02*
X91761905Y-108954819D01*
X91761905Y-108954819D02*
X91571429Y-108954819D01*
X91571429Y-108954819D02*
X91476191Y-108907200D01*
X91476191Y-108907200D02*
X91428572Y-108811961D01*
X91428572Y-108811961D02*
X91428572Y-108431009D01*
X91428572Y-108431009D02*
X91476191Y-108335771D01*
X91476191Y-108335771D02*
X91571429Y-108288152D01*
X91571429Y-108288152D02*
X91761905Y-108288152D01*
X91761905Y-108288152D02*
X91857143Y-108335771D01*
X91857143Y-108335771D02*
X91904762Y-108431009D01*
X91904762Y-108431009D02*
X91904762Y-108526247D01*
X91904762Y-108526247D02*
X91428572Y-108621485D01*
X92333334Y-108954819D02*
X92333334Y-108288152D01*
X92333334Y-108478628D02*
X92380953Y-108383390D01*
X92380953Y-108383390D02*
X92428572Y-108335771D01*
X92428572Y-108335771D02*
X92523810Y-108288152D01*
X92523810Y-108288152D02*
X92619048Y-108288152D01*
X93904763Y-107954819D02*
X94000001Y-107954819D01*
X94000001Y-107954819D02*
X94095239Y-108002438D01*
X94095239Y-108002438D02*
X94142858Y-108050057D01*
X94142858Y-108050057D02*
X94190477Y-108145295D01*
X94190477Y-108145295D02*
X94238096Y-108335771D01*
X94238096Y-108335771D02*
X94238096Y-108573866D01*
X94238096Y-108573866D02*
X94190477Y-108764342D01*
X94190477Y-108764342D02*
X94142858Y-108859580D01*
X94142858Y-108859580D02*
X94095239Y-108907200D01*
X94095239Y-108907200D02*
X94000001Y-108954819D01*
X94000001Y-108954819D02*
X93904763Y-108954819D01*
X93904763Y-108954819D02*
X93809525Y-108907200D01*
X93809525Y-108907200D02*
X93761906Y-108859580D01*
X93761906Y-108859580D02*
X93714287Y-108764342D01*
X93714287Y-108764342D02*
X93666668Y-108573866D01*
X93666668Y-108573866D02*
X93666668Y-108335771D01*
X93666668Y-108335771D02*
X93714287Y-108145295D01*
X93714287Y-108145295D02*
X93761906Y-108050057D01*
X93761906Y-108050057D02*
X93809525Y-108002438D01*
X93809525Y-108002438D02*
X93904763Y-107954819D01*
X94666668Y-108859580D02*
X94714287Y-108907200D01*
X94714287Y-108907200D02*
X94666668Y-108954819D01*
X94666668Y-108954819D02*
X94619049Y-108907200D01*
X94619049Y-108907200D02*
X94666668Y-108859580D01*
X94666668Y-108859580D02*
X94666668Y-108954819D01*
X95666667Y-108954819D02*
X95095239Y-108954819D01*
X95380953Y-108954819D02*
X95380953Y-107954819D01*
X95380953Y-107954819D02*
X95285715Y-108097676D01*
X95285715Y-108097676D02*
X95190477Y-108192914D01*
X95190477Y-108192914D02*
X95095239Y-108240533D01*
X123131009Y-101785714D02*
X123131009Y-102119047D01*
X123654819Y-102119047D02*
X122654819Y-102119047D01*
X122654819Y-102119047D02*
X122654819Y-101642857D01*
X123654819Y-100690476D02*
X123178628Y-101023809D01*
X123654819Y-101261904D02*
X122654819Y-101261904D01*
X122654819Y-101261904D02*
X122654819Y-100880952D01*
X122654819Y-100880952D02*
X122702438Y-100785714D01*
X122702438Y-100785714D02*
X122750057Y-100738095D01*
X122750057Y-100738095D02*
X122845295Y-100690476D01*
X122845295Y-100690476D02*
X122988152Y-100690476D01*
X122988152Y-100690476D02*
X123083390Y-100738095D01*
X123083390Y-100738095D02*
X123131009Y-100785714D01*
X123131009Y-100785714D02*
X123178628Y-100880952D01*
X123178628Y-100880952D02*
X123178628Y-101261904D01*
X122654819Y-100071428D02*
X122654819Y-99880952D01*
X122654819Y-99880952D02*
X122702438Y-99785714D01*
X122702438Y-99785714D02*
X122797676Y-99690476D01*
X122797676Y-99690476D02*
X122988152Y-99642857D01*
X122988152Y-99642857D02*
X123321485Y-99642857D01*
X123321485Y-99642857D02*
X123511961Y-99690476D01*
X123511961Y-99690476D02*
X123607200Y-99785714D01*
X123607200Y-99785714D02*
X123654819Y-99880952D01*
X123654819Y-99880952D02*
X123654819Y-100071428D01*
X123654819Y-100071428D02*
X123607200Y-100166666D01*
X123607200Y-100166666D02*
X123511961Y-100261904D01*
X123511961Y-100261904D02*
X123321485Y-100309523D01*
X123321485Y-100309523D02*
X122988152Y-100309523D01*
X122988152Y-100309523D02*
X122797676Y-100261904D01*
X122797676Y-100261904D02*
X122702438Y-100166666D01*
X122702438Y-100166666D02*
X122654819Y-100071428D01*
X123654819Y-99214285D02*
X122654819Y-99214285D01*
X122654819Y-99214285D02*
X123654819Y-98642857D01*
X123654819Y-98642857D02*
X122654819Y-98642857D01*
X122654819Y-98309523D02*
X122654819Y-97738095D01*
X123654819Y-98023809D02*
X122654819Y-98023809D01*
D11*
%TO.C,R8*%
X99846359Y-117120000D02*
X100153641Y-117120000D01*
X99846359Y-117880000D02*
X100153641Y-117880000D01*
%TO.C,R1*%
X102296359Y-123820000D02*
X102603641Y-123820000D01*
X102296359Y-124580000D02*
X102603641Y-124580000D01*
%TO.C,U2*%
X118390000Y-98640000D02*
X119065000Y-98640000D01*
X118390000Y-98815000D02*
X118390000Y-98640000D01*
X118390000Y-101360000D02*
X118390000Y-101185000D01*
X119065000Y-101360000D02*
X118390000Y-101360000D01*
X120935000Y-98640000D02*
X121610000Y-98640000D01*
X121610000Y-98640000D02*
X121610000Y-98815000D01*
X121610000Y-101185000D02*
X121610000Y-101360000D01*
X121610000Y-101360000D02*
X120935000Y-101360000D01*
X118260000Y-99250000D02*
X117930000Y-99490000D01*
X117930000Y-99010000D01*
X118260000Y-99250000D01*
G36*
X118260000Y-99250000D02*
G01*
X117930000Y-99490000D01*
X117930000Y-99010000D01*
X118260000Y-99250000D01*
G37*
%TO.C,R3*%
X109540000Y-89071141D02*
X109540000Y-88763859D01*
X110300000Y-89071141D02*
X110300000Y-88763859D01*
%TO.C,C7*%
X101192164Y-82140000D02*
X101407836Y-82140000D01*
X101192164Y-82860000D02*
X101407836Y-82860000D01*
%TO.C,C10*%
X96940000Y-120707836D02*
X96940000Y-120492164D01*
X97660000Y-120707836D02*
X97660000Y-120492164D01*
%TO.C,R6*%
X79846359Y-97120000D02*
X80153641Y-97120000D01*
X79846359Y-97880000D02*
X80153641Y-97880000D01*
%TO.C,C8*%
X98592164Y-82140000D02*
X98807836Y-82140000D01*
X98592164Y-82860000D02*
X98807836Y-82860000D01*
%TO.C,R9*%
X107226359Y-113502500D02*
X107533641Y-113502500D01*
X107226359Y-114262500D02*
X107533641Y-114262500D01*
%TO.C,U1*%
X98390000Y-98640000D02*
X99065000Y-98640000D01*
X98390000Y-98815000D02*
X98390000Y-98640000D01*
X98390000Y-101360000D02*
X98390000Y-101185000D01*
X99065000Y-101360000D02*
X98390000Y-101360000D01*
X100935000Y-98640000D02*
X101610000Y-98640000D01*
X101610000Y-98640000D02*
X101610000Y-98815000D01*
X101610000Y-101185000D02*
X101610000Y-101360000D01*
X101610000Y-101360000D02*
X100935000Y-101360000D01*
X98260000Y-99250000D02*
X97930000Y-99490000D01*
X97930000Y-99010000D01*
X98260000Y-99250000D01*
G36*
X98260000Y-99250000D02*
G01*
X97930000Y-99490000D01*
X97930000Y-99010000D01*
X98260000Y-99250000D01*
G37*
%TO.C,C1*%
X101192164Y-102140000D02*
X101407836Y-102140000D01*
X101192164Y-102860000D02*
X101407836Y-102860000D01*
%TO.C,R5*%
X119846359Y-97120000D02*
X120153641Y-97120000D01*
X119846359Y-97880000D02*
X120153641Y-97880000D01*
%TO.C,C5*%
X81192164Y-102140000D02*
X81407836Y-102140000D01*
X81192164Y-102860000D02*
X81407836Y-102860000D01*
%TO.C,U3*%
X78390000Y-98640000D02*
X79065000Y-98640000D01*
X78390000Y-98815000D02*
X78390000Y-98640000D01*
X78390000Y-101360000D02*
X78390000Y-101185000D01*
X79065000Y-101360000D02*
X78390000Y-101360000D01*
X80935000Y-98640000D02*
X81610000Y-98640000D01*
X81610000Y-98640000D02*
X81610000Y-98815000D01*
X81610000Y-101185000D02*
X81610000Y-101360000D01*
X81610000Y-101360000D02*
X80935000Y-101360000D01*
X78260000Y-99250000D02*
X77930000Y-99490000D01*
X77930000Y-99010000D01*
X78260000Y-99250000D01*
G36*
X78260000Y-99250000D02*
G01*
X77930000Y-99490000D01*
X77930000Y-99010000D01*
X78260000Y-99250000D01*
G37*
%TO.C,C2*%
X98592164Y-102140000D02*
X98807836Y-102140000D01*
X98592164Y-102860000D02*
X98807836Y-102860000D01*
%TO.C,R7*%
X99846359Y-77120000D02*
X100153641Y-77120000D01*
X99846359Y-77880000D02*
X100153641Y-77880000D01*
%TO.C,C4*%
X118592164Y-102140000D02*
X118807836Y-102140000D01*
X118592164Y-102860000D02*
X118807836Y-102860000D01*
%TO.C,JP1*%
X105330000Y-111782500D02*
X105330000Y-111182500D01*
X105880000Y-112982500D02*
X106480000Y-112982500D01*
X105980000Y-110482500D02*
X108780000Y-110482500D01*
X106180000Y-112682500D02*
X105880000Y-112982500D01*
X106180000Y-112682500D02*
X106480000Y-112982500D01*
X108780000Y-112482500D02*
X105980000Y-112482500D01*
X109430000Y-111182500D02*
X109430000Y-111782500D01*
X105330000Y-111182500D02*
G75*
G02*
X106030000Y-110482500I699999J1D01*
G01*
X106030000Y-112482500D02*
G75*
G02*
X105330000Y-111782500I-1J699999D01*
G01*
X108730000Y-110482500D02*
G75*
G02*
X109430000Y-111182500I0J-700000D01*
G01*
X109430000Y-111782500D02*
G75*
G02*
X108730000Y-112482500I-700000J0D01*
G01*
%TO.C,R4*%
X99846359Y-97120000D02*
X100153641Y-97120000D01*
X99846359Y-97880000D02*
X100153641Y-97880000D01*
%TO.C,C11*%
X97640000Y-125107836D02*
X97640000Y-124892164D01*
X98360000Y-125107836D02*
X98360000Y-124892164D01*
%TO.C,U4*%
X98390000Y-78640000D02*
X99065000Y-78640000D01*
X98390000Y-78815000D02*
X98390000Y-78640000D01*
X98390000Y-81360000D02*
X98390000Y-81185000D01*
X99065000Y-81360000D02*
X98390000Y-81360000D01*
X100935000Y-78640000D02*
X101610000Y-78640000D01*
X101610000Y-78640000D02*
X101610000Y-78815000D01*
X101610000Y-81185000D02*
X101610000Y-81360000D01*
X101610000Y-81360000D02*
X100935000Y-81360000D01*
X98260000Y-79250000D02*
X97930000Y-79490000D01*
X97930000Y-79010000D01*
X98260000Y-79250000D01*
G36*
X98260000Y-79250000D02*
G01*
X97930000Y-79490000D01*
X97930000Y-79010000D01*
X98260000Y-79250000D01*
G37*
%TO.C,U6*%
X99460000Y-124780000D02*
X99460000Y-125540000D01*
X99460000Y-125540000D02*
X100540000Y-125540000D01*
X99780000Y-124460000D02*
X100540000Y-124460000D01*
X100540000Y-125540000D02*
X100540000Y-124460000D01*
X99460000Y-124460000D02*
X98960000Y-124460000D01*
X99460000Y-123960000D01*
X99460000Y-124460000D01*
G36*
X99460000Y-124460000D02*
G01*
X98960000Y-124460000D01*
X99460000Y-123960000D01*
X99460000Y-124460000D01*
G37*
%TO.C,R2*%
X102296359Y-125420000D02*
X102603641Y-125420000D01*
X102296359Y-126180000D02*
X102603641Y-126180000D01*
%TO.C,C9*%
X102340000Y-120707836D02*
X102340000Y-120492164D01*
X103060000Y-120707836D02*
X103060000Y-120492164D01*
%TO.C,C3*%
X121192164Y-102140000D02*
X121407836Y-102140000D01*
X121192164Y-102860000D02*
X121407836Y-102860000D01*
%TO.C,U5*%
X98390000Y-118640000D02*
X99065000Y-118640000D01*
X98390000Y-118815000D02*
X98390000Y-118640000D01*
X98390000Y-121360000D02*
X98390000Y-121185000D01*
X99065000Y-121360000D02*
X98390000Y-121360000D01*
X100935000Y-118640000D02*
X101610000Y-118640000D01*
X101610000Y-118640000D02*
X101610000Y-118815000D01*
X101610000Y-121185000D02*
X101610000Y-121360000D01*
X101610000Y-121360000D02*
X100935000Y-121360000D01*
X98260000Y-119250000D02*
X97930000Y-119490000D01*
X97930000Y-119010000D01*
X98260000Y-119250000D01*
G36*
X98260000Y-119250000D02*
G01*
X97930000Y-119490000D01*
X97930000Y-119010000D01*
X98260000Y-119250000D01*
G37*
%TO.C,C6*%
X78592164Y-102140000D02*
X78807836Y-102140000D01*
X78592164Y-102860000D02*
X78807836Y-102860000D01*
%TD*%
%LPC*%
%TO.C,JP1*%
G36*
X106630000Y-110732500D02*
G01*
X108130000Y-110732500D01*
X108130000Y-112232500D01*
X106630000Y-112232500D01*
X106630000Y-110732500D01*
G37*
%TD*%
D13*
%TO.C,R8*%
X99490000Y-117500000D03*
X100510000Y-117500000D03*
%TD*%
%TO.C,R1*%
X101940000Y-124200000D03*
X102960000Y-124200000D03*
%TD*%
D14*
%TO.C,U2*%
X118837500Y-99250000D03*
X118837500Y-99750000D03*
X118837500Y-100250000D03*
X118837500Y-100750000D03*
D15*
X119500000Y-100912500D03*
X120000000Y-100912500D03*
X120500000Y-100912500D03*
D14*
X121162500Y-100750000D03*
X121162500Y-100250000D03*
X121162500Y-99750000D03*
X121162500Y-99250000D03*
D15*
X120500000Y-99087500D03*
X120000000Y-99087500D03*
X119500000Y-99087500D03*
%TD*%
D16*
%TO.C,R3*%
X109920000Y-89427500D03*
X109920000Y-88407500D03*
%TD*%
D17*
%TO.C,C7*%
X100820000Y-82500000D03*
X101780000Y-82500000D03*
%TD*%
D18*
%TO.C,C10*%
X97300000Y-121080000D03*
X97300000Y-120120000D03*
%TD*%
D13*
%TO.C,R6*%
X79490000Y-97500000D03*
X80510000Y-97500000D03*
%TD*%
D17*
%TO.C,C8*%
X98220000Y-82500000D03*
X99180000Y-82500000D03*
%TD*%
D13*
%TO.C,R9*%
X106870000Y-113882500D03*
X107890000Y-113882500D03*
%TD*%
D14*
%TO.C,U1*%
X98837500Y-99250000D03*
X98837500Y-99750000D03*
X98837500Y-100250000D03*
X98837500Y-100750000D03*
D15*
X99500000Y-100912500D03*
X100000000Y-100912500D03*
X100500000Y-100912500D03*
D14*
X101162500Y-100750000D03*
X101162500Y-100250000D03*
X101162500Y-99750000D03*
X101162500Y-99250000D03*
D15*
X100500000Y-99087500D03*
X100000000Y-99087500D03*
X99500000Y-99087500D03*
%TD*%
D17*
%TO.C,C1*%
X100820000Y-102500000D03*
X101780000Y-102500000D03*
%TD*%
D13*
%TO.C,R5*%
X119490000Y-97500000D03*
X120510000Y-97500000D03*
%TD*%
D17*
%TO.C,C5*%
X80820000Y-102500000D03*
X81780000Y-102500000D03*
%TD*%
D14*
%TO.C,U3*%
X78837500Y-99250000D03*
X78837500Y-99750000D03*
X78837500Y-100250000D03*
X78837500Y-100750000D03*
D15*
X79500000Y-100912500D03*
X80000000Y-100912500D03*
X80500000Y-100912500D03*
D14*
X81162500Y-100750000D03*
X81162500Y-100250000D03*
X81162500Y-99750000D03*
X81162500Y-99250000D03*
D15*
X80500000Y-99087500D03*
X80000000Y-99087500D03*
X79500000Y-99087500D03*
%TD*%
D19*
%TO.C,H3*%
X91244300Y-124056100D03*
%TD*%
D17*
%TO.C,C2*%
X98220000Y-102500000D03*
X99180000Y-102500000D03*
%TD*%
D13*
%TO.C,R7*%
X99490000Y-77500000D03*
X100510000Y-77500000D03*
%TD*%
D19*
%TO.C,H1*%
X122170300Y-87200000D03*
%TD*%
D17*
%TO.C,C4*%
X118220000Y-102500000D03*
X119180000Y-102500000D03*
%TD*%
D20*
%TO.C,JP1*%
X106080000Y-111482500D03*
D21*
X107380000Y-111482500D03*
D22*
X108680000Y-111482500D03*
%TD*%
D13*
%TO.C,R4*%
X99490000Y-97500000D03*
X100510000Y-97500000D03*
%TD*%
D18*
%TO.C,C11*%
X98000000Y-125480000D03*
X98000000Y-124520000D03*
%TD*%
D14*
%TO.C,U4*%
X98837500Y-79250000D03*
X98837500Y-79750000D03*
X98837500Y-80250000D03*
X98837500Y-80750000D03*
D15*
X99500000Y-80912500D03*
X100000000Y-80912500D03*
X100500000Y-80912500D03*
D14*
X101162500Y-80750000D03*
X101162500Y-80250000D03*
X101162500Y-79750000D03*
X101162500Y-79250000D03*
D15*
X100500000Y-79087500D03*
X100000000Y-79087500D03*
X99500000Y-79087500D03*
%TD*%
D23*
%TO.C,U6*%
X99800000Y-124800000D03*
X100200000Y-124800000D03*
X99800000Y-125200000D03*
X100200000Y-125200000D03*
%TD*%
D13*
%TO.C,R2*%
X101940000Y-125800000D03*
X102960000Y-125800000D03*
%TD*%
D18*
%TO.C,C9*%
X102700000Y-121080000D03*
X102700000Y-120120000D03*
%TD*%
D17*
%TO.C,C3*%
X120820000Y-102500000D03*
X121780000Y-102500000D03*
%TD*%
D14*
%TO.C,U5*%
X98837500Y-119250000D03*
X98837500Y-119750000D03*
X98837500Y-120250000D03*
X98837500Y-120750000D03*
D15*
X99500000Y-120912500D03*
X100000000Y-120912500D03*
X100500000Y-120912500D03*
D14*
X101162500Y-120750000D03*
X101162500Y-120250000D03*
X101162500Y-119750000D03*
X101162500Y-119250000D03*
D15*
X100500000Y-119087500D03*
X100000000Y-119087500D03*
X99500000Y-119087500D03*
%TD*%
D17*
%TO.C,C6*%
X78220000Y-102500000D03*
X79180000Y-102500000D03*
%TD*%
D19*
%TO.C,H2*%
X77829700Y-87200000D03*
%TD*%
D24*
%TO.C,M1*%
X115313500Y-104472500D03*
X117218500Y-104472500D03*
%TD*%
%LPD*%
M02*
