M48
; DRILL file {KiCad 9.0.9-9.0.9~ubuntu24.04.1} date 2026-10-09T16:26:59+0000
; FORMAT={-:-/ absolute / metric / decimal}
; #@! TF.CreationDate,2026-10-09T16:26:59+00:00
; #@! TF.GenerationSoftware,Kicad,Pcbnew,9.0.9-9.0.9~ubuntu24.04.1
; #@! TF.FileFunction,Plated,1,4,PTH
FMAT,2
METRIC
; #@! TA.AperFunction,Plated,PTH,ViaDrill
T1C0.250
; #@! TA.AperFunction,Plated,PTH,ComponentDrill
T2C0.600
%
G90
G05
T1
X76.0Y-91.0
X76.0Y-94.0
X76.0Y-97.0
X76.0Y-100.0
X76.0Y-103.0
X76.0Y-106.0
X76.0Y-109.0
X77.7Y-99.1
X79.0Y-85.0
X79.0Y-91.0
X79.0Y-94.0
X79.0Y-106.0
X79.0Y-112.0
X79.0Y-115.0
X79.118Y-101.707
X79.351Y-98.298
X80.0Y-101.75
X80.254Y-103.06
X82.0Y-82.0
X82.0Y-85.0
X82.0Y-88.0
X82.0Y-91.0
X82.0Y-106.0
X82.0Y-109.0
X82.0Y-115.0
X82.0Y-118.0
X82.591Y-112.61
X83.212Y-97.751
X85.0Y-79.0
X85.0Y-82.0
X85.0Y-88.0
X85.0Y-94.0
X85.0Y-97.0
X85.0Y-103.0
X85.0Y-106.0
X85.0Y-109.0
X85.0Y-112.0
X85.0Y-118.0
X85.0Y-121.0
X88.0Y-79.0
X88.0Y-82.0
X88.0Y-85.0
X88.0Y-91.0
X88.0Y-94.0
X88.0Y-97.0
X88.0Y-100.0
X88.0Y-121.0
X88.308Y-117.983
X91.0Y-76.0
X91.0Y-79.0
X91.0Y-82.0
X91.0Y-85.0
X91.0Y-88.0
X91.0Y-91.0
X91.0Y-94.0
X91.0Y-97.0
X91.0Y-100.0
X91.0Y-103.0
X91.0Y-106.0
X91.0Y-109.0
X91.0Y-112.0
X91.0Y-115.0
X91.0Y-121.0
X94.0Y-76.0
X94.0Y-79.0
X94.0Y-82.0
X94.0Y-85.0
X94.0Y-88.0
X94.0Y-91.0
X94.0Y-94.0
X94.0Y-97.0
X94.0Y-100.0
X94.0Y-103.0
X94.0Y-106.0
X94.0Y-109.0
X94.0Y-112.0
X94.0Y-115.0
X94.0Y-121.0
X94.0Y-124.0
X96.591Y-86.188
X97.0Y-124.0
X97.061Y-122.482
X97.219Y-127.016
X97.7Y-79.1
X97.7Y-99.1
X97.7Y-119.1
X98.22Y-103.4
X98.751Y-81.613
X99.325Y-81.78
X99.386Y-123.255
X99.728Y-76.786
X99.737Y-120.0
X99.768Y-118.298
X100.0Y-76.0
X100.0Y-81.75
X100.0Y-85.0
X100.0Y-88.0
X100.0Y-91.0
X100.0Y-94.0
X100.0Y-101.75
X100.0Y-106.0
X100.0Y-109.0
X100.0Y-121.75
X100.457Y-120.0
X100.962Y-81.707
X101.408Y-114.136
X101.437Y-86.188
X101.934Y-80.094
X101.94Y-124.914
X102.162Y-100.75
X103.0Y-82.0
X103.0Y-85.0
X103.0Y-88.0
X103.0Y-91.0
X103.0Y-94.0
X103.0Y-100.0
X103.0Y-103.0
X103.0Y-106.0
X103.0Y-112.0
X103.0Y-115.0
X103.4Y-121.08
X103.787Y-99.437
X103.869Y-97.863
X104.027Y-88.759
X104.382Y-119.396
X104.539Y-113.096
X104.657Y-106.743
X105.225Y-112.982
X106.0Y-76.0
X106.0Y-79.0
X106.0Y-85.0
X106.0Y-88.0
X106.0Y-100.0
X106.0Y-106.0
X106.0Y-115.0
X106.0Y-121.0
X106.0Y-124.0
X107.08Y-110.288
X109.0Y-76.0
X109.0Y-79.0
X109.0Y-82.0
X109.0Y-88.0
X109.0Y-94.0
X109.0Y-97.0
X109.0Y-100.0
X109.0Y-103.0
X109.0Y-115.0
X109.0Y-121.0
X109.0Y-124.0
X110.189Y-117.983
X110.992Y-90.322
X112.0Y-79.0
X112.0Y-82.0
X112.0Y-85.0
X112.0Y-94.0
X112.0Y-97.0
X112.0Y-100.0
X112.0Y-103.0
X112.0Y-106.0
X112.0Y-112.0
X112.0Y-115.0
X112.0Y-118.0
X112.0Y-121.0
X113.845Y-90.322
X113.845Y-109.677
X115.0Y-79.0
X115.0Y-82.0
X115.0Y-88.0
X115.0Y-94.0
X115.0Y-97.0
X115.0Y-100.0
X115.0Y-118.0
X115.0Y-121.0
X116.27Y-90.285
X117.7Y-99.1
X118.0Y-82.0
X118.0Y-85.0
X118.0Y-94.0
X118.0Y-115.0
X118.0Y-118.0
X118.271Y-109.883
X119.026Y-88.759
X119.1Y-101.9
X119.594Y-90.16
X121.0Y-85.0
X121.0Y-94.0
X121.0Y-106.0
X121.0Y-112.0
X121.0Y-115.0
X121.46Y-109.677
X124.0Y-94.0
X124.0Y-97.0
X124.0Y-103.0
X124.0Y-106.0
T2
X115.313Y-104.472
X117.218Y-104.472
M30
