%TF.GenerationSoftware,KiCad,Pcbnew,9.0.9-9.0.9~ubuntu24.04.1*%
%TF.CreationDate,2026-10-09T16:26:58+00:00*%
%TF.ProjectId,disctracker_sensor,64697363-7472-4616-936b-65725f73656e,rev?*%
%TF.SameCoordinates,Original*%
%TF.FileFunction,Paste,Top*%
%TF.FilePolarity,Positive*%
%FSLAX46Y46*%
G04 Gerber Fmt 4.6, Leading zero omitted, Abs format (unit mm)*
G04 Created by KiCad (PCBNEW 9.0.9-9.0.9~ubuntu24.04.1) date 2026-10-09 16:26:58*
%MOMM*%
%LPD*%
G01*
G04 APERTURE LIST*
G04 Aperture macros list*
%AMRoundRect*
0 Rectangle with rounded corners*
0 $1 Rounding radius*
0 $2 $3 $4 $5 $6 $7 $8 $9 X,Y pos of 4 corners*
0 Add a 4 corners polygon primitive as box body*
4,1,4,$2,$3,$4,$5,$6,$7,$8,$9,$2,$3,0*
0 Add four circle primitives for the rounded corners*
1,1,$1+$1,$2,$3*
1,1,$1+$1,$4,$5*
1,1,$1+$1,$6,$7*
1,1,$1+$1,$8,$9*
0 Add four rect primitives between the rounded corners*
20,1,$1+$1,$2,$3,$4,$5,0*
20,1,$1+$1,$4,$5,$6,$7,0*
20,1,$1+$1,$6,$7,$8,$9,0*
20,1,$1+$1,$8,$9,$2,$3,0*%
G04 Aperture macros list end*
%ADD10RoundRect,0.135000X-0.135000X-0.185000X0.135000X-0.185000X0.135000X0.185000X-0.135000X0.185000X0*%
%ADD11RoundRect,0.087500X-0.225000X-0.087500X0.225000X-0.087500X0.225000X0.087500X-0.225000X0.087500X0*%
%ADD12RoundRect,0.087500X-0.087500X-0.225000X0.087500X-0.225000X0.087500X0.225000X-0.087500X0.225000X0*%
%ADD13RoundRect,0.135000X0.185000X-0.135000X0.185000X0.135000X-0.185000X0.135000X-0.185000X-0.135000X0*%
%ADD14RoundRect,0.140000X-0.140000X-0.170000X0.140000X-0.170000X0.140000X0.170000X-0.140000X0.170000X0*%
%ADD15RoundRect,0.140000X0.170000X-0.140000X0.170000X0.140000X-0.170000X0.140000X-0.170000X-0.140000X0*%
%ADD16C,0.250000*%
G04 APERTURE END LIST*
D10*
%TO.C,R8*%
X99490000Y-117500000D03*
X100510000Y-117500000D03*
%TD*%
%TO.C,R1*%
X101940000Y-124200000D03*
X102960000Y-124200000D03*
%TD*%
D11*
%TO.C,U2*%
X118837500Y-99250000D03*
X118837500Y-99750000D03*
X118837500Y-100250000D03*
X118837500Y-100750000D03*
D12*
X119500000Y-100912500D03*
X120000000Y-100912500D03*
X120500000Y-100912500D03*
D11*
X121162500Y-100750000D03*
X121162500Y-100250000D03*
X121162500Y-99750000D03*
X121162500Y-99250000D03*
D12*
X120500000Y-99087500D03*
X120000000Y-99087500D03*
X119500000Y-99087500D03*
%TD*%
D13*
%TO.C,R3*%
X109920000Y-89427500D03*
X109920000Y-88407500D03*
%TD*%
D14*
%TO.C,C7*%
X100820000Y-82500000D03*
X101780000Y-82500000D03*
%TD*%
D15*
%TO.C,C10*%
X97300000Y-121080000D03*
X97300000Y-120120000D03*
%TD*%
D10*
%TO.C,R6*%
X79490000Y-97500000D03*
X80510000Y-97500000D03*
%TD*%
D14*
%TO.C,C8*%
X98220000Y-82500000D03*
X99180000Y-82500000D03*
%TD*%
D10*
%TO.C,R9*%
X106870000Y-113882500D03*
X107890000Y-113882500D03*
%TD*%
D11*
%TO.C,U1*%
X98837500Y-99250000D03*
X98837500Y-99750000D03*
X98837500Y-100250000D03*
X98837500Y-100750000D03*
D12*
X99500000Y-100912500D03*
X100000000Y-100912500D03*
X100500000Y-100912500D03*
D11*
X101162500Y-100750000D03*
X101162500Y-100250000D03*
X101162500Y-99750000D03*
X101162500Y-99250000D03*
D12*
X100500000Y-99087500D03*
X100000000Y-99087500D03*
X99500000Y-99087500D03*
%TD*%
D14*
%TO.C,C1*%
X100820000Y-102500000D03*
X101780000Y-102500000D03*
%TD*%
D10*
%TO.C,R5*%
X119490000Y-97500000D03*
X120510000Y-97500000D03*
%TD*%
D14*
%TO.C,C5*%
X80820000Y-102500000D03*
X81780000Y-102500000D03*
%TD*%
D11*
%TO.C,U3*%
X78837500Y-99250000D03*
X78837500Y-99750000D03*
X78837500Y-100250000D03*
X78837500Y-100750000D03*
D12*
X79500000Y-100912500D03*
X80000000Y-100912500D03*
X80500000Y-100912500D03*
D11*
X81162500Y-100750000D03*
X81162500Y-100250000D03*
X81162500Y-99750000D03*
X81162500Y-99250000D03*
D12*
X80500000Y-99087500D03*
X80000000Y-99087500D03*
X79500000Y-99087500D03*
%TD*%
D14*
%TO.C,C2*%
X98220000Y-102500000D03*
X99180000Y-102500000D03*
%TD*%
D10*
%TO.C,R7*%
X99490000Y-77500000D03*
X100510000Y-77500000D03*
%TD*%
D14*
%TO.C,C4*%
X118220000Y-102500000D03*
X119180000Y-102500000D03*
%TD*%
D10*
%TO.C,R4*%
X99490000Y-97500000D03*
X100510000Y-97500000D03*
%TD*%
D15*
%TO.C,C11*%
X98000000Y-125480000D03*
X98000000Y-124520000D03*
%TD*%
D11*
%TO.C,U4*%
X98837500Y-79250000D03*
X98837500Y-79750000D03*
X98837500Y-80250000D03*
X98837500Y-80750000D03*
D12*
X99500000Y-80912500D03*
X100000000Y-80912500D03*
X100500000Y-80912500D03*
D11*
X101162500Y-80750000D03*
X101162500Y-80250000D03*
X101162500Y-79750000D03*
X101162500Y-79250000D03*
D12*
X100500000Y-79087500D03*
X100000000Y-79087500D03*
X99500000Y-79087500D03*
%TD*%
D16*
%TO.C,U6*%
X99800000Y-124800000D03*
X100200000Y-124800000D03*
X99800000Y-125200000D03*
X100200000Y-125200000D03*
%TD*%
D10*
%TO.C,R2*%
X101940000Y-125800000D03*
X102960000Y-125800000D03*
%TD*%
D15*
%TO.C,C9*%
X102700000Y-121080000D03*
X102700000Y-120120000D03*
%TD*%
D14*
%TO.C,C3*%
X120820000Y-102500000D03*
X121780000Y-102500000D03*
%TD*%
D11*
%TO.C,U5*%
X98837500Y-119250000D03*
X98837500Y-119750000D03*
X98837500Y-120250000D03*
X98837500Y-120750000D03*
D12*
X99500000Y-120912500D03*
X100000000Y-120912500D03*
X100500000Y-120912500D03*
D11*
X101162500Y-120750000D03*
X101162500Y-120250000D03*
X101162500Y-119750000D03*
X101162500Y-119250000D03*
D12*
X100500000Y-119087500D03*
X100000000Y-119087500D03*
X99500000Y-119087500D03*
%TD*%
D14*
%TO.C,C6*%
X78220000Y-102500000D03*
X79180000Y-102500000D03*
%TD*%
M02*
