ISO-10303-21;
HEADER;
FILE_DESCRIPTION(('KiCad electronic assembly'),'2;1');
FILE_NAME('disctracker_sensor.step','2026-10-09T16:27:00',('Pcbnew'),(
    'Kicad'),'Open CASCADE STEP processor 7.6','KiCad to STEP converter'
  ,'Unknown');
FILE_SCHEMA(('AUTOMOTIVE_DESIGN { 1 0 10303 214 1 1 1 1 }'));
ENDSEC;
DATA;
#1 = APPLICATION_PROTOCOL_DEFINITION('international standard',
  'automotive_design',2000,#2);
#2 = APPLICATION_CONTEXT(
  'core data for automotive mechanical design processes');
#3 = SHAPE_DEFINITION_REPRESENTATION(#4,#10);
#4 = PRODUCT_DEFINITION_SHAPE('','',#5);
#5 = PRODUCT_DEFINITION('design','',#6,#9);
#6 = PRODUCT_DEFINITION_FORMATION('','',#7);
#7 = PRODUCT('disctracker_sensor 1','disctracker_sensor 1','',(#8));
#8 = PRODUCT_CONTEXT('',#2,'mechanical');
#9 = PRODUCT_DEFINITION_CONTEXT('part definition',#2,'design');
#10 = SHAPE_REPRESENTATION('',(#11,#15),#19);
#11 = AXIS2_PLACEMENT_3D('',#12,#13,#14);
#12 = CARTESIAN_POINT('',(0.,0.,0.));
#13 = DIRECTION('',(0.,0.,1.));
#14 = DIRECTION('',(1.,0.,-0.));
#15 = AXIS2_PLACEMENT_3D('',#16,#17,#18);
#16 = CARTESIAN_POINT('',(0.,0.,0.));
#17 = DIRECTION('',(0.,0.,1.));
#18 = DIRECTION('',(1.,0.,-0.));
#19 = ( GEOMETRIC_REPRESENTATION_CONTEXT(3) 
GLOBAL_UNCERTAINTY_ASSIGNED_CONTEXT((#23)) GLOBAL_UNIT_ASSIGNED_CONTEXT(
(#20,#21,#22)) REPRESENTATION_CONTEXT('Context #1',
  '3D Context with UNIT and UNCERTAINTY') );
#20 = ( LENGTH_UNIT() NAMED_UNIT(*) SI_UNIT(.MILLI.,.METRE.) );
#21 = ( NAMED_UNIT(*) PLANE_ANGLE_UNIT() SI_UNIT($,.RADIAN.) );
#22 = ( NAMED_UNIT(*) SI_UNIT($,.STERADIAN.) SOLID_ANGLE_UNIT() );
#23 = UNCERTAINTY_MEASURE_WITH_UNIT(LENGTH_MEASURE(1.E-07),#20,
  'distance_accuracy_value','confusion accuracy');
#24 = PRODUCT_RELATED_PRODUCT_CATEGORY('part',$,(#7));
#25 = SHAPE_DEFINITION_REPRESENTATION(#26,#32);
#26 = PRODUCT_DEFINITION_SHAPE('','',#27);
#27 = PRODUCT_DEFINITION('design','',#28,#31);
#28 = PRODUCT_DEFINITION_FORMATION('','',#29);
#29 = PRODUCT('disctracker_sensor_PCB','disctracker_sensor_PCB','',(#30)
  );
#30 = PRODUCT_CONTEXT('',#2,'mechanical');
#31 = PRODUCT_DEFINITION_CONTEXT('part definition',#2,'design');
#32 = ADVANCED_BREP_SHAPE_REPRESENTATION('',(#11,#33),#314);
#33 = MANIFOLD_SOLID_BREP('',#34);
#34 = CLOSED_SHELL('',(#35,#77,#99,#164,#229,#246,#263,#280,#297));
#35 = ADVANCED_FACE('',(#36),#72,.T.);
#36 = FACE_BOUND('',#37,.T.);
#37 = EDGE_LOOP('',(#38,#48,#57,#65));
#38 = ORIENTED_EDGE('',*,*,#39,.T.);
#39 = EDGE_CURVE('',#40,#42,#44,.T.);
#40 = VERTEX_POINT('',#41);
#41 = CARTESIAN_POINT('',(126.5,-109.04157,0.));
#42 = VERTEX_POINT('',#43);
#43 = CARTESIAN_POINT('',(126.5,-109.04157,0.709999));
#44 = LINE('',#45,#46);
#45 = CARTESIAN_POINT('',(126.5,-109.04157,0.));
#46 = VECTOR('',#47,1.);
#47 = DIRECTION('',(0.,0.,1.));
#48 = ORIENTED_EDGE('',*,*,#49,.T.);
#49 = EDGE_CURVE('',#42,#50,#52,.T.);
#50 = VERTEX_POINT('',#51);
#51 = CARTESIAN_POINT('',(126.5,-90.958429,0.709999));
#52 = CIRCLE('',#53,27.999999973454);
#53 = AXIS2_PLACEMENT_3D('',#54,#55,#56);
#54 = CARTESIAN_POINT('',(99.999999973454,-99.9999995,0.709999));
#55 = DIRECTION('',(0.,0.,-1.));
#56 = DIRECTION('',(0.946428573274,-0.322913232449,0.));
#57 = ORIENTED_EDGE('',*,*,#58,.F.);
#58 = EDGE_CURVE('',#59,#50,#61,.T.);
#59 = VERTEX_POINT('',#60);
#60 = CARTESIAN_POINT('',(126.5,-90.958429,0.));
#61 = LINE('',#62,#63);
#62 = CARTESIAN_POINT('',(126.5,-90.958429,0.));
#63 = VECTOR('',#64,1.);
#64 = DIRECTION('',(0.,0.,1.));
#65 = ORIENTED_EDGE('',*,*,#66,.F.);
#66 = EDGE_CURVE('',#40,#59,#67,.T.);
#67 = CIRCLE('',#68,27.999999973454);
#68 = AXIS2_PLACEMENT_3D('',#69,#70,#71);
#69 = CARTESIAN_POINT('',(99.999999973454,-99.9999995,0.));
#70 = DIRECTION('',(0.,0.,-1.));
#71 = DIRECTION('',(0.946428573274,-0.322913232449,0.));
#72 = CYLINDRICAL_SURFACE('',#73,27.999999973454);
#73 = AXIS2_PLACEMENT_3D('',#74,#75,#76);
#74 = CARTESIAN_POINT('',(99.999999973454,-99.9999995,0.));
#75 = DIRECTION('',(0.,0.,-1.));
#76 = DIRECTION('',(0.946428573274,-0.322913232449,0.));
#77 = ADVANCED_FACE('',(#78),#94,.T.);
#78 = FACE_BOUND('',#79,.T.);
#79 = EDGE_LOOP('',(#80,#81,#87,#88));
#80 = ORIENTED_EDGE('',*,*,#58,.T.);
#81 = ORIENTED_EDGE('',*,*,#82,.T.);
#82 = EDGE_CURVE('',#50,#42,#83,.T.);
#83 = LINE('',#84,#85);
#84 = CARTESIAN_POINT('',(126.5,-90.958429,0.709999));
#85 = VECTOR('',#86,1.);
#86 = DIRECTION('',(0.,-1.,0.));
#87 = ORIENTED_EDGE('',*,*,#39,.F.);
#88 = ORIENTED_EDGE('',*,*,#89,.F.);
#89 = EDGE_CURVE('',#59,#40,#90,.T.);
#90 = LINE('',#91,#92);
#91 = CARTESIAN_POINT('',(126.5,-90.958429,0.));
#92 = VECTOR('',#93,1.);
#93 = DIRECTION('',(0.,-1.,0.));
#94 = PLANE('',#95);
#95 = AXIS2_PLACEMENT_3D('',#96,#97,#98);
#96 = CARTESIAN_POINT('',(126.5,-90.958429,0.));
#97 = DIRECTION('',(1.,0.,-0.));
#98 = DIRECTION('',(0.,-1.,0.));
#99 = ADVANCED_FACE('',(#100,#104,#115,#126,#137,#148),#159,.F.);
#100 = FACE_BOUND('',#101,.F.);
#101 = EDGE_LOOP('',(#102,#103));
#102 = ORIENTED_EDGE('',*,*,#66,.F.);
#103 = ORIENTED_EDGE('',*,*,#89,.F.);
#104 = FACE_BOUND('',#105,.F.);
#105 = EDGE_LOOP('',(#106));
#106 = ORIENTED_EDGE('',*,*,#107,.T.);
#107 = EDGE_CURVE('',#108,#108,#110,.T.);
#108 = VERTEX_POINT('',#109);
#109 = CARTESIAN_POINT('',(91.2443,-125.1061,0.));
#110 = CIRCLE('',#111,1.05);
#111 = AXIS2_PLACEMENT_3D('',#112,#113,#114);
#112 = CARTESIAN_POINT('',(91.2443,-124.0561,0.));
#113 = DIRECTION('',(-0.,0.,-1.));
#114 = DIRECTION('',(-1.353414734781E-14,-1.,0.));
#115 = FACE_BOUND('',#116,.F.);
#116 = EDGE_LOOP('',(#117));
#117 = ORIENTED_EDGE('',*,*,#118,.T.);
#118 = EDGE_CURVE('',#119,#119,#121,.T.);
#119 = VERTEX_POINT('',#120);
#120 = CARTESIAN_POINT('',(77.8297,-88.25,0.));
#121 = CIRCLE('',#122,1.05);
#122 = AXIS2_PLACEMENT_3D('',#123,#124,#125);
#123 = CARTESIAN_POINT('',(77.8297,-87.2,0.));
#124 = DIRECTION('',(-0.,0.,-1.));
#125 = DIRECTION('',(-0.,-1.,0.));
#126 = FACE_BOUND('',#127,.F.);
#127 = EDGE_LOOP('',(#128));
#128 = ORIENTED_EDGE('',*,*,#129,.T.);
#129 = EDGE_CURVE('',#130,#130,#132,.T.);
#130 = VERTEX_POINT('',#131);
#131 = CARTESIAN_POINT('',(115.3135,-104.7725,0.));
#132 = CIRCLE('',#133,0.3);
#133 = AXIS2_PLACEMENT_3D('',#134,#135,#136);
#134 = CARTESIAN_POINT('',(115.3135,-104.4725,0.));
#135 = DIRECTION('',(-0.,0.,-1.));
#136 = DIRECTION('',(-0.,-1.,0.));
#137 = FACE_BOUND('',#138,.F.);
#138 = EDGE_LOOP('',(#139));
#139 = ORIENTED_EDGE('',*,*,#140,.T.);
#140 = EDGE_CURVE('',#141,#141,#143,.T.);
#141 = VERTEX_POINT('',#142);
#142 = CARTESIAN_POINT('',(117.2185,-104.7725,0.));
#143 = CIRCLE('',#144,0.3);
#144 = AXIS2_PLACEMENT_3D('',#145,#146,#147);
#145 = CARTESIAN_POINT('',(117.2185,-104.4725,0.));
#146 = DIRECTION('',(-0.,0.,-1.));
#147 = DIRECTION('',(-0.,-1.,0.));
#148 = FACE_BOUND('',#149,.F.);
#149 = EDGE_LOOP('',(#150));
#150 = ORIENTED_EDGE('',*,*,#151,.T.);
#151 = EDGE_CURVE('',#152,#152,#154,.T.);
#152 = VERTEX_POINT('',#153);
#153 = CARTESIAN_POINT('',(122.1703,-88.25,0.));
#154 = CIRCLE('',#155,1.05);
#155 = AXIS2_PLACEMENT_3D('',#156,#157,#158);
#156 = CARTESIAN_POINT('',(122.1703,-87.2,0.));
#157 = DIRECTION('',(-0.,0.,-1.));
#158 = DIRECTION('',(-0.,-1.,0.));
#159 = PLANE('',#160);
#160 = AXIS2_PLACEMENT_3D('',#161,#162,#163);
#161 = CARTESIAN_POINT('',(0.,0.,0.));
#162 = DIRECTION('',(0.,0.,1.));
#163 = DIRECTION('',(1.,0.,-0.));
#164 = ADVANCED_FACE('',(#165,#169,#180,#191,#202,#213),#224,.T.);
#165 = FACE_BOUND('',#166,.T.);
#166 = EDGE_LOOP('',(#167,#168));
#167 = ORIENTED_EDGE('',*,*,#49,.F.);
#168 = ORIENTED_EDGE('',*,*,#82,.F.);
#169 = FACE_BOUND('',#170,.T.);
#170 = EDGE_LOOP('',(#171));
#171 = ORIENTED_EDGE('',*,*,#172,.T.);
#172 = EDGE_CURVE('',#173,#173,#175,.T.);
#173 = VERTEX_POINT('',#174);
#174 = CARTESIAN_POINT('',(91.2443,-125.1061,0.709999));
#175 = CIRCLE('',#176,1.05);
#176 = AXIS2_PLACEMENT_3D('',#177,#178,#179);
#177 = CARTESIAN_POINT('',(91.2443,-124.0561,0.709999));
#178 = DIRECTION('',(-0.,0.,-1.));
#179 = DIRECTION('',(-1.353414734781E-14,-1.,0.));
#180 = FACE_BOUND('',#181,.T.);
#181 = EDGE_LOOP('',(#182));
#182 = ORIENTED_EDGE('',*,*,#183,.T.);
#183 = EDGE_CURVE('',#184,#184,#186,.T.);
#184 = VERTEX_POINT('',#185);
#185 = CARTESIAN_POINT('',(77.8297,-88.25,0.709999));
#186 = CIRCLE('',#187,1.05);
#187 = AXIS2_PLACEMENT_3D('',#188,#189,#190);
#188 = CARTESIAN_POINT('',(77.8297,-87.2,0.709999));
#189 = DIRECTION('',(-0.,0.,-1.));
#190 = DIRECTION('',(-0.,-1.,0.));
#191 = FACE_BOUND('',#192,.T.);
#192 = EDGE_LOOP('',(#193));
#193 = ORIENTED_EDGE('',*,*,#194,.T.);
#194 = EDGE_CURVE('',#195,#195,#197,.T.);
#195 = VERTEX_POINT('',#196);
#196 = CARTESIAN_POINT('',(115.3135,-104.7725,0.709999));
#197 = CIRCLE('',#198,0.3);
#198 = AXIS2_PLACEMENT_3D('',#199,#200,#201);
#199 = CARTESIAN_POINT('',(115.3135,-104.4725,0.709999));
#200 = DIRECTION('',(-0.,0.,-1.));
#201 = DIRECTION('',(-0.,-1.,0.));
#202 = FACE_BOUND('',#203,.T.);
#203 = EDGE_LOOP('',(#204));
#204 = ORIENTED_EDGE('',*,*,#205,.T.);
#205 = EDGE_CURVE('',#206,#206,#208,.T.);
#206 = VERTEX_POINT('',#207);
#207 = CARTESIAN_POINT('',(117.2185,-104.7725,0.709999));
#208 = CIRCLE('',#209,0.3);
#209 = AXIS2_PLACEMENT_3D('',#210,#211,#212);
#210 = CARTESIAN_POINT('',(117.2185,-104.4725,0.709999));
#211 = DIRECTION('',(-0.,0.,-1.));
#212 = DIRECTION('',(-0.,-1.,0.));
#213 = FACE_BOUND('',#214,.T.);
#214 = EDGE_LOOP('',(#215));
#215 = ORIENTED_EDGE('',*,*,#216,.T.);
#216 = EDGE_CURVE('',#217,#217,#219,.T.);
#217 = VERTEX_POINT('',#218);
#218 = CARTESIAN_POINT('',(122.1703,-88.25,0.709999));
#219 = CIRCLE('',#220,1.05);
#220 = AXIS2_PLACEMENT_3D('',#221,#222,#223);
#221 = CARTESIAN_POINT('',(122.1703,-87.2,0.709999));
#222 = DIRECTION('',(-0.,0.,-1.));
#223 = DIRECTION('',(-0.,-1.,0.));
#224 = PLANE('',#225);
#225 = AXIS2_PLACEMENT_3D('',#226,#227,#228);
#226 = CARTESIAN_POINT('',(0.,0.,0.709999));
#227 = DIRECTION('',(0.,0.,1.));
#228 = DIRECTION('',(1.,0.,-0.));
#229 = ADVANCED_FACE('',(#230),#241,.F.);
#230 = FACE_BOUND('',#231,.T.);
#231 = EDGE_LOOP('',(#232,#233,#239,#240));
#232 = ORIENTED_EDGE('',*,*,#107,.T.);
#233 = ORIENTED_EDGE('',*,*,#234,.T.);
#234 = EDGE_CURVE('',#108,#173,#235,.T.);
#235 = LINE('',#236,#237);
#236 = CARTESIAN_POINT('',(91.2443,-125.1061,-4.6E-02));
#237 = VECTOR('',#238,1.);
#238 = DIRECTION('',(0.,0.,1.));
#239 = ORIENTED_EDGE('',*,*,#172,.F.);
#240 = ORIENTED_EDGE('',*,*,#234,.F.);
#241 = CYLINDRICAL_SURFACE('',#242,1.05);
#242 = AXIS2_PLACEMENT_3D('',#243,#244,#245);
#243 = CARTESIAN_POINT('',(91.2443,-124.0561,-4.6E-02));
#244 = DIRECTION('',(-0.,-0.,-1.));
#245 = DIRECTION('',(-1.353414734781E-14,-1.,0.));
#246 = ADVANCED_FACE('',(#247),#258,.F.);
#247 = FACE_BOUND('',#248,.T.);
#248 = EDGE_LOOP('',(#249,#250,#256,#257));
#249 = ORIENTED_EDGE('',*,*,#118,.T.);
#250 = ORIENTED_EDGE('',*,*,#251,.T.);
#251 = EDGE_CURVE('',#119,#184,#252,.T.);
#252 = LINE('',#253,#254);
#253 = CARTESIAN_POINT('',(77.8297,-88.25,-4.6E-02));
#254 = VECTOR('',#255,1.);
#255 = DIRECTION('',(0.,0.,1.));
#256 = ORIENTED_EDGE('',*,*,#183,.F.);
#257 = ORIENTED_EDGE('',*,*,#251,.F.);
#258 = CYLINDRICAL_SURFACE('',#259,1.05);
#259 = AXIS2_PLACEMENT_3D('',#260,#261,#262);
#260 = CARTESIAN_POINT('',(77.8297,-87.2,-4.6E-02));
#261 = DIRECTION('',(-0.,-0.,-1.));
#262 = DIRECTION('',(-0.,-1.,0.));
#263 = ADVANCED_FACE('',(#264),#275,.F.);
#264 = FACE_BOUND('',#265,.T.);
#265 = EDGE_LOOP('',(#266,#267,#273,#274));
#266 = ORIENTED_EDGE('',*,*,#129,.T.);
#267 = ORIENTED_EDGE('',*,*,#268,.T.);
#268 = EDGE_CURVE('',#130,#195,#269,.T.);
#269 = LINE('',#270,#271);
#270 = CARTESIAN_POINT('',(115.3135,-104.7725,-4.6E-02));
#271 = VECTOR('',#272,1.);
#272 = DIRECTION('',(0.,0.,1.));
#273 = ORIENTED_EDGE('',*,*,#194,.F.);
#274 = ORIENTED_EDGE('',*,*,#268,.F.);
#275 = CYLINDRICAL_SURFACE('',#276,0.3);
#276 = AXIS2_PLACEMENT_3D('',#277,#278,#279);
#277 = CARTESIAN_POINT('',(115.3135,-104.4725,-4.6E-02));
#278 = DIRECTION('',(-0.,-0.,-1.));
#279 = DIRECTION('',(-0.,-1.,0.));
#280 = ADVANCED_FACE('',(#281),#292,.F.);
#281 = FACE_BOUND('',#282,.T.);
#282 = EDGE_LOOP('',(#283,#284,#290,#291));
#283 = ORIENTED_EDGE('',*,*,#140,.T.);
#284 = ORIENTED_EDGE('',*,*,#285,.T.);
#285 = EDGE_CURVE('',#141,#206,#286,.T.);
#286 = LINE('',#287,#288);
#287 = CARTESIAN_POINT('',(117.2185,-104.7725,-4.6E-02));
#288 = VECTOR('',#289,1.);
#289 = DIRECTION('',(0.,0.,1.));
#290 = ORIENTED_EDGE('',*,*,#205,.F.);
#291 = ORIENTED_EDGE('',*,*,#285,.F.);
#292 = CYLINDRICAL_SURFACE('',#293,0.3);
#293 = AXIS2_PLACEMENT_3D('',#294,#295,#296);
#294 = CARTESIAN_POINT('',(117.2185,-104.4725,-4.6E-02));
#295 = DIRECTION('',(-0.,-0.,-1.));
#296 = DIRECTION('',(-0.,-1.,0.));
#297 = ADVANCED_FACE('',(#298),#309,.F.);
#298 = FACE_BOUND('',#299,.T.);
#299 = EDGE_LOOP('',(#300,#301,#307,#308));
#300 = ORIENTED_EDGE('',*,*,#151,.T.);
#301 = ORIENTED_EDGE('',*,*,#302,.T.);
#302 = EDGE_CURVE('',#152,#217,#303,.T.);
#303 = LINE('',#304,#305);
#304 = CARTESIAN_POINT('',(122.1703,-88.25,-4.6E-02));
#305 = VECTOR('',#306,1.);
#306 = DIRECTION('',(0.,0.,1.));
#307 = ORIENTED_EDGE('',*,*,#216,.F.);
#308 = ORIENTED_EDGE('',*,*,#302,.F.);
#309 = CYLINDRICAL_SURFACE('',#310,1.05);
#310 = AXIS2_PLACEMENT_3D('',#311,#312,#313);
#311 = CARTESIAN_POINT('',(122.1703,-87.2,-4.6E-02));
#312 = DIRECTION('',(-0.,-0.,-1.));
#313 = DIRECTION('',(-0.,-1.,0.));
#314 = ( GEOMETRIC_REPRESENTATION_CONTEXT(3) 
GLOBAL_UNCERTAINTY_ASSIGNED_CONTEXT((#318)) GLOBAL_UNIT_ASSIGNED_CONTEXT
((#315,#316,#317)) REPRESENTATION_CONTEXT('Context #1',
  '3D Context with UNIT and UNCERTAINTY') );
#315 = ( LENGTH_UNIT() NAMED_UNIT(*) SI_UNIT(.MILLI.,.METRE.) );
#316 = ( NAMED_UNIT(*) PLANE_ANGLE_UNIT() SI_UNIT($,.RADIAN.) );
#317 = ( NAMED_UNIT(*) SI_UNIT($,.STERADIAN.) SOLID_ANGLE_UNIT() );
#318 = UNCERTAINTY_MEASURE_WITH_UNIT(LENGTH_MEASURE(1.E-07),#315,
  'distance_accuracy_value','confusion accuracy');
#319 = CONTEXT_DEPENDENT_SHAPE_REPRESENTATION(#320,#322);
#320 = ( REPRESENTATION_RELATIONSHIP('','',#32,#10) 
REPRESENTATION_RELATIONSHIP_WITH_TRANSFORMATION(#321) 
SHAPE_REPRESENTATION_RELATIONSHIP() );
#321 = ITEM_DEFINED_TRANSFORMATION('','',#11,#15);
#322 = PRODUCT_DEFINITION_SHAPE('Placement','Placement of an item',#323
  );
#323 = NEXT_ASSEMBLY_USAGE_OCCURRENCE('1','=>[0:1:1:2]','',#5,#27,$);
#324 = PRODUCT_RELATED_PRODUCT_CATEGORY('part',$,(#29));
#325 = MECHANICAL_DESIGN_GEOMETRIC_PRESENTATION_REPRESENTATION('',(#326)
  ,#314);
#326 = STYLED_ITEM('color',(#327),#33);
#327 = PRESENTATION_STYLE_ASSIGNMENT((#328));
#328 = SURFACE_STYLE_USAGE(.BOTH.,#329);
#329 = SURFACE_SIDE_STYLE('',(#330));
#330 = SURFACE_STYLE_FILL_AREA(#331);
#331 = FILL_AREA_STYLE('',(#332));
#332 = FILL_AREA_STYLE_COLOUR('',#333);
#333 = COLOUR_RGB('',0.313304153717,0.484529207832,0.410020903123);
ENDSEC;
END-ISO-10303-21;
